<svg width="16" height="16" viewBox="0 0 16 16" fill="none" xmlns="http://www.w3.org/2000/svg">
  <path fill-rule="evenodd" clip-rule="evenodd"
    d="M7.51667 1C3.91762 1 1 3.91762 1 7.51667C1 11.1157 3.91762 14.0333 7.51667 14.0333C9.00944 14.0333 10.3857 13.531 11.4845 12.6865L13.818 15.0201C14.1499 15.352 14.6881 15.352 15.0201 15.0201C15.352 14.6881 15.352 14.1499 15.0201 13.818L12.6865 11.4845C13.531 10.3857 14.0333 9.00944 14.0333 7.51667C14.0333 3.91762 11.1157 1 7.51667 1ZM2.7 7.51667C2.7 4.85651 4.85651 2.7 7.51667 2.7C10.1768 2.7 12.3333 4.85651 12.3333 7.51667C12.3333 10.1768 10.1768 12.3333 7.51667 12.3333C4.85651 12.3333 2.7 10.1768 2.7 7.51667Z"
    fill="currentColor" />
</svg>