<svg xmlns="http://www.w3.org/2000/svg" fill="none" viewBox="0 0 116 116"><path fill="currentColor" d="M31.507 104.22c25.46 14.699 58.013 5.976 72.712-19.483 14.699-25.459 5.976-58.013-19.483-72.712C59.277-2.674 26.723 6.05 12.024 31.508c-14.699 25.46-5.976 58.014 19.483 72.712Zm-1.98 3.43c27.353 15.792 62.33 6.421 78.122-20.933 15.792-27.353 6.421-62.33-20.933-78.122-27.353-15.792-62.33-6.42-78.122 20.933-15.792 27.353-6.42 62.33 20.933 78.122Zm43.115-92.705a46.259 46.259 0 0 1 15.7 8.96l.011.009a45.681 45.681 0 0 1 11.248 14.773l1.214-.568-.004-.01a47.091 47.091 0 0 0-11.582-15.203l-.01-.01a47.55 47.55 0 0 0-16.73-9.4l-.414 1.264.008.003c.187.06.373.12.559.182Zm-45.21 8.96a46.26 46.26 0 0 1 16.26-9.142l.008-.003-.413-1.264a47.277 47.277 0 0 0-4.635 1.751 47.547 47.547 0 0 0-12.095 7.65l-.011.01a47.091 47.091 0 0 0-9.214 10.856 46.793 46.793 0 0 0-2.367 4.346l-.005.01 1.215.568a45.681 45.681 0 0 1 11.247-14.773l.01-.01Zm45.21 77.512a46.255 46.255 0 0 0 15.7-8.959l.011-.01a45.682 45.682 0 0 0 11.248-14.772l1.214.567-.004.01a47.091 47.091 0 0 1-11.582 15.203l-.01.01a47.563 47.563 0 0 1-16.73 9.401l-.414-1.265.008-.002c.187-.06.373-.121.559-.183Zm-45.21-8.96a46.266 46.266 0 0 0 16.26 9.142l.008.003-.414 1.265c-.195-.063-.39-.126-.583-.191a47.541 47.541 0 0 1-16.147-9.21l-.011-.01a47.091 47.091 0 0 1-9.214-10.857 46.791 46.791 0 0 1-2.367-4.346l-.005-.01 1.215-.568A45.68 45.68 0 0 0 27.42 92.448l.01.01ZM53.79 12.444l4.152-4.841 4.152 4.84-4.152 4.84-4.152-4.84Zm4.867 82.996-4.153 4.841 4.153 4.84 4.152-4.84-4.152-4.84Z" clip-rule="evenodd" fill-rule="evenodd" opacity=".3" data-follow-fill="#FFC759"/></svg>
