<svg xmlns="http://www.w3.org/2000/svg" fill="none" viewBox="0 0 20 20">
  <g data-follow-fill="currentColor" opacity=".5" fill="currentColor">
    <path
      d="M10 1.875c-2.295 0-4.37.953-5.846 2.483a.625.625 0 1 0 .9.868 6.875 6.875 0 0 1 11.822 4.712V10a.625.625 0 1 0 1.25 0l-.001-.068V3.333a.625.625 0 1 0-1.25 0v2.334A8.12 8.12 0 0 0 10 1.875ZM3.125 10a.625.625 0 1 0-1.25 0v6.667a.625.625 0 0 0 1.25 0v-2.335A8.12 8.12 0 0 0 10 18.125a8.1 8.1 0 0 0 5.642-2.279.625.625 0 1 0-.868-.899A6.875 6.875 0 0 1 3.124 10Z"
      clip-rule="evenodd" fill-rule="evenodd" />
    <path
      d="m4.154 4.358.252.243-.252-.243Zm.016.883-.244.252.244-.252Zm.883-.015-.251-.243.251.243Zm11.822 4.711h.35v-.003l-.35.003Zm.597.687.016-.35-.016.35Zm.653-.692h-.35v.003l.35-.003Zm-1.25-4.265-.296.187.646 1.023v-1.21h-.35Zm-13.75 8.665.296-.187-.646-1.023v1.21h.35Zm12.517 1.514.244.252-.244-.252Zm-.868-.899.243.252-.243-.252ZM4.406 4.601A7.753 7.753 0 0 1 10 2.225v-.7a8.453 8.453 0 0 0-6.098 2.59l.504.486Zm.007.389a.275.275 0 0 1-.007-.39l-.504-.486a.975.975 0 0 0 .024 1.38l.487-.504Zm.389-.007a.275.275 0 0 1-.39.007l-.486.503a.975.975 0 0 0 1.38-.024l-.504-.486ZM10 2.775a7.203 7.203 0 0 0-5.198 2.208l.503.486A6.503 6.503 0 0 1 10 3.475v-.7Zm7.225 7.16A7.225 7.225 0 0 0 10 2.774v.7a6.525 6.525 0 0 1 6.525 6.465l.7-.006Zm0 .065v-.063h-.7V10h.7Zm.262.275a.275.275 0 0 1-.262-.275h-.7c0 .524.413.951.932.974l.03-.7Zm.013 0h-.012l-.032.699.044.001v-.7Zm.275-.275a.275.275 0 0 1-.275.275v.7a.975.975 0 0 0 .975-.975h-.7Zm0-.065V10h.7v-.071l-.7.006Zm0-6.602v6.599h.7V3.333h-.7Zm-.275-.275c.152 0 .275.123.275.275h.7a.975.975 0 0 0-.975-.975v.7Zm-.275.275c0-.152.123-.275.275-.275v-.7a.975.975 0 0 0-.975.975h.7Zm0 2.334V3.333h-.7v2.334h.7ZM10 2.225a7.77 7.77 0 0 1 6.58 3.63l.59-.374A8.47 8.47 0 0 0 10 1.525v.7Zm-7.5 7.5c.152 0 .275.123.275.275h.7a.975.975 0 0 0-.975-.975v.7ZM2.225 10c0-.152.123-.275.275-.275v-.7a.975.975 0 0 0-.975.975h.7Zm0 6.667V10h-.7v6.667h.7Zm.275.275a.275.275 0 0 1-.275-.275h-.7c0 .538.437.975.975.975v-.7Zm.275-.275a.275.275 0 0 1-.275.275v.7a.975.975 0 0 0 .975-.975h-.7Zm0-2.335v2.335h.7v-2.335h-.7ZM10 17.775a7.77 7.77 0 0 1-6.58-3.63l-.59.374A8.47 8.47 0 0 0 10 18.475v-.7Zm5.4-2.18a7.75 7.75 0 0 1-5.4 2.18v.7a8.45 8.45 0 0 0 5.886-2.377l-.487-.503Zm.006-.39a.275.275 0 0 1-.007.39l.487.503a.975.975 0 0 0 .024-1.378l-.504.486Zm-.389-.006a.275.275 0 0 1 .39.007l.503-.486a.975.975 0 0 0-1.379-.025l.486.504ZM10 17.225a7.2 7.2 0 0 0 5.017-2.026l-.486-.504A6.5 6.5 0 0 1 10 16.525v.7ZM2.775 10A7.225 7.225 0 0 0 10 17.225v-.7A6.525 6.525 0 0 1 3.475 10h-.7Z" />
  </g>
</svg>